<svg width="321" height="321" viewBox="0 0 321 321" fill="none" xmlns="http://www.w3.org/2000/svg">
<path d="M321 160.5C321 249.142 249.142 321 160.5 321C71.8583 321 0 249.142 0 160.5C0 71.8583 71.8583 0 160.5 0C249.142 0 321 71.8583 321 160.5Z" fill="#4285F4"/>
<path d="M217.435 77.5253C223.224 75.2281 229.817 76.6083 234.223 81.0233C238.63 85.4473 239.995 92.0767 237.706 97.8813L228.645 120.885C225.929 120.344 223.121 120.054 220.246 120.054C196.499 120.054 177.245 139.386 177.245 163.229C177.246 178.7 185.357 192.264 197.537 199.886L183.853 234.647C181.244 241.298 174.47 245.331 167.408 244.454C160.337 243.56 154.746 238.004 153.824 230.905L144.763 169.553L84.9389 161.746C77.8768 160.82 72.3381 155.218 71.4544 148.112C70.5715 141.021 74.5868 134.226 81.212 131.597L217.435 77.5253Z" fill="white"/>
<path d="M220.201 134.985C225.833 134.908 231.36 136.509 236.085 139.586C240.81 142.664 244.52 147.078 246.746 152.272C248.972 157.467 249.614 163.207 248.591 168.767C247.567 174.328 244.925 179.459 240.997 183.511C237.069 187.564 232.033 190.356 226.525 191.534C221.016 192.713 215.284 192.225 210.052 190.133C204.82 188.04 200.323 184.437 197.131 179.779C193.938 175.12 192.193 169.616 192.116 163.962L220.589 163.572L220.201 134.985Z" fill="white"/>
</svg>
