<svg width="34" height="34" viewBox="0 0 34 34" fill="none" xmlns="http://www.w3.org/2000/svg">
<path d="M17 0C7.616 0 0 7.616 0 17C0 26.384 7.616 34 17 34C26.384 34 34 26.384 34 17C34 7.616 26.384 0 17 0ZM17 6.8C20.281 6.8 22.95 9.469 22.95 12.75C22.95 16.031 20.281 18.7 17 18.7C13.719 18.7 11.05 16.031 11.05 12.75C11.05 9.469 13.719 6.8 17 6.8ZM17 30.6C13.549 30.6 9.469 29.206 6.562 25.704C9.435 23.46 13.056 22.1 17 22.1C20.944 22.1 24.565 23.46 27.438 25.704C24.531 29.206 20.451 30.6 17 30.6Z" fill="#4285F4"/>
</svg>
